# xmcd
#
# Track frame offsets: 
#        150
#        14285
#        25570
#        41640
#        53290
#        72132
#        89952
#        107450
#        125395
#        134992
#
# Disc length: 2006 seconds
#
# Revision: 0
# Processed by: cddbd v1.4PL0 Copyright (c) Steve Scherf et al.
# Submitted via: ExactAudioCopy v0.90a11
#
DISCID=8107d40a
DTITLE=Shenandoah - Shenandoah Christmas
DYEAR=1900
DGENRE=
TTITLE0=White Christmas
TTITLE1=Winter Wonderland
TTITLE2=The Christmas Song (Chestnuts Roasting On An Open Fire)
TTITLE3=Rudolph The Red Nosed Reindeer
TTITLE4=Have Yourself A Merry Little Christmas
TTITLE5=O Come All Ye Faithful
TTITLE6=I'll Be Home For Christmas
TTITLE7=O Little Town Of Bethlehem
TTITLE8=Santa Claus Is Coming To Town
TTITLE9=There's A Way In The Manger
EXTD=
EXTT0=
EXTT1=
EXTT2=
EXTT3=
EXTT4=
EXTT5=
EXTT6=
EXTT7=
EXTT8=
EXTT9=
PLAYORDER=
